<?xml version="1.0" encoding="utf-8"?>
<!-- Generator: Adobe Illustrator 19.2.0, SVG Export Plug-In . SVG Version: 6.00 Build 0)  -->
<svg version="1.1" id="Layer_1" xmlns="http://www.w3.org/2000/svg" xmlns:xlink="http://www.w3.org/1999/xlink" x="0px" y="0px"
	 viewBox="0 0 100 100" style="enable-background:new 0 0 100 100;" xml:space="preserve">
<path d="M50.3,0C37-0.1,24.3,5,14.9,14.4C5.3,23.8,0.1,36.3,0,49.7V50c0,27.4,22.3,49.8,49.7,50c27.6,0.2,50.1-22.1,50.3-50
	C100,22.6,77.7,0.2,50.3,0z M77.3,56.1L52.2,80.9c-0.7,0.7-1.4,0.9-2.2,0.9s-1.7-0.3-2.2-0.9L22.7,56.1c-1.2-1.2-1.2-3.3,0-4.6
	s3.3-1.2,4.6,0L50,74.1l22.8-22.6c1.2-1.2,3.3-1.2,4.6,0C78.7,52.8,78.6,54.8,77.3,56.1z M77.3,31.2L52.2,56.1
	C51.6,56.8,50.8,57,50,57s-1.7-0.3-2.2-0.9L22.7,31.2c-1.2-1.2-1.2-3.3,0-4.6c1.2-1.2,3.3-1.2,4.6,0L50,49.2l22.8-22.6
	c1.2-1.2,3.3-1.2,4.6,0C78.7,27.9,78.6,30,77.3,31.2z"/>
</svg>
