<?xml version="1.0" encoding="utf-8"?>
<!-- Generator: Adobe Illustrator 19.2.0, SVG Export Plug-In . SVG Version: 6.00 Build 0)  -->
<svg version="1.1" xmlns="http://www.w3.org/2000/svg" xmlns:xlink="http://www.w3.org/1999/xlink" x="0px" y="0px"
	 viewBox="0 0 100 100" style="enable-background:new 0 0 100 100;" xml:space="preserve">
<path d="M46.3,0c-4,0-7.3,3.3-7.3,7.3c0,1.1,0.1,2,0.5,2.9l-12.8,8.7c-1.7-2.5-4.5-4.3-7.9-4.3c-5.2,0-9.5,4.3-9.5,9.5
	s4.3,9.5,9.5,9.5c0.4,0,0.8-0.1,1.2-0.1l8.1,43.5c-5.2,1.2-8.9,5.9-8.9,11.3c0,6.5,5.3,11.7,11.7,11.7c6.5,0,11.7-5.2,11.7-11.6
	l29.6-1.5c0.5,4.5,4.4,8,9.1,8c5.1,0,9.2-4.1,9.2-9.2s-4.1-9.2-9.2-9.2c-0.3,0-0.4,0-0.7,0l-4.4-29.3C82.3,46,87,40.5,87,34.1
	c0-7.3-6-13.3-13.3-13.3c-3.5,0-6.7,1.3-9.1,3.6L51.9,12c0.9-1.3,1.6-2.9,1.6-4.7C53.5,3.2,50.2,0,46.3,0z M27.8,26.4l15.5,2.8
	L41.9,42c-0.1,0-0.1,0-0.3,0c-2,0-3.9,0.7-5.3,1.7L25.3,30.7C26.5,29.6,27.4,28,27.8,26.4z M50.9,12.9l12.7,12.4
	c-1.3,1.6-2.4,3.6-2.9,5.7l-3.3-0.7l-7.5-16.8C50.2,13.5,50.6,13.2,50.9,12.9z M61.5,39.7h-0.1l-3.6-7.9l2.5,0.4
	c-0.1,0.5-0.1,1.2-0.1,1.7C60.2,36.1,60.7,38,61.5,39.7z M64.9,44.1l-0.9,1.2l-1.9-4.3l0.1-0.1C62.9,42.1,63.8,43.2,64.9,44.1z
	 M63,46.4L52.6,59.6L49,56.5c1.2-1.5,1.9-3.5,1.9-5.5c0-1.3-0.3-2.7-0.8-3.7l10.8-5.7L63,46.4z M63.7,47.9L77,77.6
	c-0.8,0.4-1.5,0.9-2.1,1.6L53.5,60.5L63.7,47.9z M72.1,85.5l-29.6,1.5c-0.3-2.9-1.7-5.6-3.9-7.5l14.1-17.9l21.2,18.5
	C72.9,81.6,72.2,83.5,72.1,85.5z M35.1,77.3l5.5-17.2c0.4,0.1,0.8,0.1,1.2,0.1c2.5,0,4.8-1.1,6.4-2.7l3.6,3.2L37.7,78.7
	C36.9,78,35.9,77.6,35.1,77.3z M44.5,29.5l11.7,2.1l4,8.8l-10.8,5.9c-1.3-2.1-3.6-3.7-6.1-4.1L44.5,29.5z M44.7,28.1l1.3-13.5
	c0.1,0,0.1,0,0.1,0c0.8,0,1.6-0.1,2.4-0.4l7.1,15.9L44.7,28.1z M79.3,76.8c-0.3,0-0.7,0.1-1.1,0.3L64.5,46.5l1.3-1.7
	c2.1,1.6,4.8,2.5,7.7,2.5c0.5,0,0.9,0,1.3,0L79.3,76.8z M21.1,33.1c1.2-0.3,2.1-0.8,3.1-1.5l11.1,13.1c-1.6,1.6-2.7,3.9-2.7,6.4
	c0,4.1,2.8,7.6,6.5,8.7l-5.3,17.1c-0.9-0.3-2-0.4-2.9-0.4c-0.5,0-0.9,0.1-1.5,0.1L21.1,33.1z M40.2,11.5c1.1,1.6,2.7,2.7,4.7,3.1
	l-1.3,13.3l-15.3-2.8c0-0.4,0-0.7,0-1.1c0-1.5-0.4-2.8-0.9-4L40.2,11.5z"/>
</svg>
